PathFileType	4	(X/Y/Z)	C:\Users\italobelli\Desktop\GitHub\PTbot_officialCBL\Personal_Results\FLX22_noisy2.trc
DataRate	CameraRate	NumFrames	NumMarkers	Units	OrigDataRate	OrigDataStartFrame	OrigNumFrames
106.125000	106.125000	25	9	m	106.125000	426	850
Frame#	Time		gu		centelbow		EpL		centpxt8		centijc7		ij		ts		aa		ai
			X1	Y1	Z1	X2	Y2	Z2	X3	Y3	Z3	X4	Y4	Z4	X5	Y5	Z5	X6	Y6	Z6	X7	Y7	Z7	X8	Y8	Z8	X9	Y9	Z9

426	4.0047	-0.112	0.059624	0.10118	-0.031276	0.26726	0.19025	-0.057941	0.27823	0.17583	-0.046816	-0.15316	-0.008669	-0.046816	0.031938	-0.008669	0	0	0	-0.137	-0.025792	0.052148	-0.14334	0.08018	0.10649	-0.11133	-0.070297	0.15337
427	4.0141	-0.1121	0.059656	0.10112	-0.031618	0.26746	0.19023	-0.058287	0.27841	0.17578	-0.046816	-0.15316	-0.008669	-0.046816	0.031938	-0.008669	0	0	0	-0.13702	-0.025771	0.052144	-0.14345	0.080211	0.10644	-0.11138	-0.070221	0.15341
428	4.0236	-0.11218	0.059687	0.10107	-0.031932	0.26765	0.19023	-0.058605	0.27858	0.17575	-0.046816	-0.15316	-0.008669	-0.046816	0.031938	-0.008669	0	0	0	-0.13703	-0.025746	0.052139	-0.14355	0.080246	0.10639	-0.11144	-0.070147	0.15345
429	4.033	-0.11226	0.059716	0.10102	-0.032216	0.26783	0.19024	-0.058894	0.27874	0.17574	-0.046816	-0.15316	-0.008669	-0.046816	0.031938	-0.008669	0	0	0	-0.13705	-0.025716	0.052135	-0.14364	0.080284	0.10635	-0.1115	-0.070074	0.15348
430	4.0424	-0.11233	0.059744	0.10098	-0.032471	0.26799	0.19027	-0.059154	0.2789	0.17575	-0.046816	-0.15316	-0.008669	-0.046816	0.031938	-0.008669	0	0	0	-0.13707	-0.025682	0.052131	-0.14373	0.080325	0.10631	-0.11156	-0.070003	0.1535
431	4.0518	-0.1124	0.059771	0.10094	-0.032698	0.26815	0.19031	-0.059386	0.27904	0.17577	-0.046816	-0.15316	-0.008669	-0.046816	0.031938	-0.008669	0	0	0	-0.13709	-0.025643	0.052128	-0.14381	0.080369	0.10628	-0.11162	-0.069933	0.15352
432	4.0612	-0.11245	0.059796	0.1009	-0.032896	0.26829	0.19037	-0.059589	0.27918	0.17581	-0.046816	-0.15316	-0.008669	-0.046816	0.031938	-0.008669	0	0	0	-0.13712	-0.025601	0.052125	-0.14388	0.080417	0.10625	-0.11168	-0.069865	0.15354
433	4.0707	-0.1125	0.059821	0.10086	-0.033067	0.26842	0.19045	-0.059764	0.27931	0.17587	-0.046816	-0.15316	-0.008669	-0.046816	0.031938	-0.008669	0	0	0	-0.13715	-0.025554	0.052122	-0.14395	0.080467	0.10623	-0.11175	-0.0698	0.15356
434	4.0801	-0.11254	0.059844	0.10083	-0.03321	0.26855	0.19054	-0.059912	0.27943	0.17594	-0.046816	-0.15316	-0.008669	-0.046816	0.031938	-0.008669	0	0	0	-0.13718	-0.025503	0.052119	-0.14401	0.08052	0.10622	-0.11181	-0.069735	0.15357
435	4.0895	-0.11257	0.059866	0.1008	-0.033325	0.26866	0.19064	-0.060032	0.27954	0.17603	-0.046816	-0.15316	-0.008669	-0.046816	0.031938	-0.008669	0	0	0	-0.13722	-0.025449	0.052117	-0.14406	0.080576	0.10621	-0.11188	-0.069673	0.15357
436	4.0989	-0.11259	0.059887	0.10078	-0.033413	0.26876	0.19076	-0.060125	0.27965	0.17613	-0.046816	-0.15316	-0.008669	-0.046816	0.031938	-0.008669	0	0	0	-0.13726	-0.025391	0.052115	-0.14411	0.080634	0.1062	-0.11194	-0.069613	0.15357
437	4.1084	-0.11261	0.059907	0.10076	-0.033474	0.26885	0.19088	-0.060191	0.27975	0.17625	-0.046816	-0.15316	-0.008669	-0.046816	0.031938	-0.008669	0	0	0	-0.1373	-0.025329	0.052113	-0.14415	0.080695	0.1062	-0.11201	-0.069554	0.15357
438	4.1178	-0.11262	0.059926	0.10074	-0.033509	0.26893	0.19103	-0.06023	0.27984	0.17638	-0.046816	-0.15316	-0.008669	-0.046816	0.031938	-0.008669	0	0	0	-0.13734	-0.025264	0.052111	-0.14419	0.080758	0.10621	-0.11208	-0.069498	0.15357
439	4.1272	-0.11262	0.059945	0.10072	-0.033518	0.269	0.19118	-0.060242	0.27993	0.17653	-0.046816	-0.15316	-0.008669	-0.046816	0.031938	-0.008669	0	0	0	-0.13739	-0.025195	0.05211	-0.14422	0.080824	0.10621	-0.11215	-0.069443	0.15356
440	4.1366	-0.11262	0.059962	0.10071	-0.033501	0.26907	0.19134	-0.060229	0.28001	0.17668	-0.046816	-0.15316	-0.008669	-0.046816	0.031938	-0.008669	0	0	0	-0.13744	-0.025124	0.052109	-0.14424	0.080891	0.10623	-0.11222	-0.069391	0.15355
441	4.1461	-0.11261	0.059979	0.1007	-0.033458	0.26912	0.19152	-0.060189	0.28008	0.17685	-0.046816	-0.15316	-0.008669	-0.046816	0.031938	-0.008669	0	0	0	-0.13749	-0.025049	0.052108	-0.14426	0.080961	0.10625	-0.11229	-0.06934	0.15353
442	4.1555	-0.11259	0.059995	0.10069	-0.03339	0.26916	0.19171	-0.060123	0.28015	0.17704	-0.046816	-0.15316	-0.008669	-0.046816	0.031938	-0.008669	0	0	0	-0.13754	-0.024971	0.052108	-0.14427	0.081032	0.10627	-0.11237	-0.069292	0.15352
443	4.1649	-0.11257	0.06001	0.10068	-0.033296	0.2692	0.1919	-0.060032	0.28021	0.17723	-0.046816	-0.15316	-0.008669	-0.046816	0.031938	-0.008669	0	0	0	-0.1376	-0.02489	0.052107	-0.14428	0.081105	0.10629	-0.11244	-0.069246	0.1535
444	4.1743	-0.11254	0.060025	0.10068	-0.033179	0.26923	0.19211	-0.059915	0.28026	0.17744	-0.046816	-0.15316	-0.008669	-0.046816	0.031938	-0.008669	0	0	0	-0.13766	-0.024806	0.052107	-0.14428	0.081179	0.10632	-0.11252	-0.069201	0.15347
445	4.1837	-0.1125	0.060039	0.10068	-0.033036	0.26925	0.19233	-0.059774	0.28031	0.17765	-0.046816	-0.15316	-0.008669	-0.046816	0.031938	-0.008669	0	0	0	-0.13772	-0.02472	0.052107	-0.14427	0.081255	0.10636	-0.1126	-0.069159	0.15345
446	4.1932	-0.11246	0.060052	0.10068	-0.03287	0.26926	0.19256	-0.059607	0.28035	0.17788	-0.046816	-0.15316	-0.008669	-0.046816	0.031938	-0.008669	0	0	0	-0.13779	-0.024631	0.052108	-0.14426	0.081333	0.1064	-0.11268	-0.069119	0.15342
447	4.2026	-0.11241	0.060065	0.10068	-0.03268	0.26926	0.19279	-0.059416	0.28039	0.17812	-0.046816	-0.15316	-0.008669	-0.046816	0.031938	-0.008669	0	0	0	-0.13785	-0.02454	0.052108	-0.14424	0.081411	0.10644	-0.11276	-0.069082	0.15339
448	4.212	-0.11236	0.060078	0.10069	-0.032466	0.26926	0.19303	-0.059201	0.28043	0.17836	-0.046816	-0.15316	-0.008669	-0.046816	0.031938	-0.008669	0	0	0	-0.13792	-0.024446	0.052109	-0.14422	0.081491	0.10648	-0.11284	-0.069046	0.15336
449	4.2214	-0.1123	0.06009	0.1007	-0.032229	0.26925	0.19328	-0.058961	0.28045	0.17862	-0.046816	-0.15316	-0.008669	-0.046816	0.031938	-0.008669	0	0	0	-0.13799	-0.02435	0.05211	-0.14419	0.081571	0.10653	-0.11293	-0.069013	0.15332
450	4.2309	-0.11224	0.060102	0.10071	-0.031969	0.26923	0.19354	-0.058698	0.28048	0.17888	-0.046816	-0.15316	-0.008669	-0.046816	0.031938	-0.008669	0	0	0	-0.13807	-0.024252	0.052111	-0.14415	0.081653	0.10659	-0.11301	-0.068983	0.15329
